<?xml version="1.0" encoding="utf-8"?>
<!-- Generator: Adobe Illustrator 23.0.1, SVG Export Plug-In . SVG Version: 6.00 Build 0)  -->
<svg version="1.1" id="Layer_1" xmlns="http://www.w3.org/2000/svg" xmlns:xlink="http://www.w3.org/1999/xlink" x="0px" y="0px"
	 viewBox="0 0 640 640" style="enable-background:new 0 0 640 640;" xml:space="preserve">
<style type="text/css">
	.st0{
		fill:rgba(255,255,255,0.7);
		stroke: rgb(0, 121, 162);
		stroke-width:16;
		stroke-miterlimit:10;
	}
	path{
		fill: rgb(0, 121, 162);
	}
</style>
<circle class="st0" cx="319.4" cy="322.27" r="301.64"/>
<g>
	<path d="M273.5,510.52c-42.17,1.08-90.2-26.93-106.86-73.31c-16.57-46.13,7.18-93.82,54.17-107.74c3.81-1.13,3.84-1.25,1.22-4.16
		c-9.74-10.81-18.82-22.07-24.43-35.7c-2.83-6.88-4.78-13.93-4.19-21.47c0.96-12.21,7.93-19.99,18.72-24.5
		c10.94-4.56,22.51-5.39,34.24-4.51c24.21,1.83,47.09,8.73,69.27,18.22c2.64,1.13,4.2,1.02,5.62-1.78c2.42-4.79,5.14-9.44,7.9-14.05
		c1.27-2.13,1-3.73-0.33-5.78c-14.04-21.69-16.63-44.7-5.48-68.08c11.96-25.09,32.39-38.62,60.45-39.93
		c19.42-0.9,36.12,5.83,50.12,18.98c11.68,10.96,18.46,24.68,20.79,40.59c5.4,36.92-21.05,73.52-60.51,78.38
		c-0.37,0.05-0.76,0.18-1.11,0.12c-7-1.3-10.78,2.18-13.29,8.32c-1.55,3.79-3.77,7.34-6.02,10.79c-1.69,2.6-1.16,4.07,1.25,5.78
		c12.26,8.69,23.78,18.26,34.26,29.06c12.2,12.56,22.89,26.17,28.61,43.02c2.31,6.82,3.45,13.81,1.61,21
		c-3.07,12.01-11.71,18.2-22.83,21.56c-13.96,4.22-28.15,3.52-42.33,1.34c-4.44-0.68-8.84-1.64-13.25-2.53
		c-3.87-0.78-3.98-0.74-3.04,3.02c3.43,13.68,4.18,27.46,0.43,41.14c-9.36,34.12-32.49,53.36-66.41,60.67
		C285.72,510.35,279.24,510.83,273.5,510.52z M187.65,407c-0.01,9.95,1.92,18.74,6.07,27.56c16.01,34.04,53.52,54.53,90.85,49.26
		c16.64-2.35,30.74-9.77,40.49-23.82c12.56-18.11,12-37.41,4.12-57.15c-1.11-2.79-2.46-1.91-4.25-0.76
		c-10.28,6.6-21.42,9.84-33.75,8.75c-27.16-2.39-47.83-24.16-48.82-51.35c-0.09-2.45,1.98-5.78-0.54-7.17
		c-2.19-1.2-5.34,0.19-8.03,0.73C206.22,358.54,187.68,380.22,187.65,407z"/>
</g>
</svg>
