<?xml version="1.0" encoding="utf-8"?>
<!-- Generator: Adobe Illustrator 23.0.1, SVG Export Plug-In . SVG Version: 6.00 Build 0)  -->
<svg version="1.1" id="Layer_1" xmlns="http://www.w3.org/2000/svg" xmlns:xlink="http://www.w3.org/1999/xlink" x="0px" y="0px"
	 viewBox="0 0 931.24 857.65" style="enable-background:new 0 0 931.24 857.65;" xml:space="preserve">
<g transform="translate(0.000000,1280.000000) scale(0.100000,-0.100000)">
	<path d="M6560.71,12442.54c-6-5-33-39-60-78c-27-38-135-155-240-260c-104-104-199-207-210-227c-18-35-18-38-2-56c11-12,44-24,88-31
		c39-7,68-15,66-17c-3-3-35,1-72,7c-63,12-68,12-81-6c-8-11-11-28-8-39c25-81,650-1329,775-1550c40-69,61-86,87-70
		c38,25,39,126,2,854c-5,96-9,272-9,391c-1,161-4,219-13,227c-7,5-82,27-166,47c-164,40-204,58-56,25c49-11,105-20,125-20
		c68,0,69,8,10,242c-58,234-129,462-164,523C6610.71,12443.54,6582.71,12458.54,6560.71,12442.54z M6242.71,11763.54c-3-3-12-4-19-1
		c-8,3-5,6,6,6C6240.71,11769.54,6246.71,11766.54,6242.71,11763.54z M6282.71,11753.54c-3-3-12-4-19-1c-8,3-5,6,6,6
		C6280.71,11759.54,6286.71,11756.54,6282.71,11753.54z M6322.71,11743.54c-3-3-12-4-19-1c-8,3-5,6,6,6
		C6320.71,11749.54,6326.71,11746.54,6322.71,11743.54z M6362.71,11733.54c-3-3-12-4-19-1c-8,3-5,6,6,6
		C6360.71,11739.54,6366.71,11736.54,6362.71,11733.54z M6402.71,11723.54c-3-3-12-4-19-1c-8,3-5,6,6,6
		C6400.71,11729.54,6406.71,11726.54,6402.71,11723.54z M6552.71,11683.54c-3-3-12-4-19-1c-8,3-5,6,6,6
		C6550.71,11689.54,6556.71,11686.54,6552.71,11683.54z"/>
	<path d="M6672.71,12428.54c-14-19-12-31,19-122c48-141,119-393,144-507c26-121,34-140,61-140c12,0,44,16,70,35c27,19,51,35,54,35
		s-11-22-30-49c-19-26-35-60-35-75s-6-26-14-26c-38,0-37-15,14-581c28-305,54-565,58-579c5-17,16-26,33-28c21-2,38,9,82,55
		c119,125,263,317,404,538c117,185,213,350,213,368c0,8-7,20-15,27c-14,11-13,14,7,24c13,6,24,19,26,29c3,17-97,378-168,607
		c-42,135-61,170-89,170c-14,0-17,6-14,23c3,14-2,29-11,36c-15,12-739,180-778,181
		C6694.71,12449.54,6680.71,12440.54,6672.71,12428.54z M7312.71,11493.54c-3-3-12-4-19-1c-8,3-5,6,6,6
		C7310.71,11499.54,7316.71,11496.54,7312.71,11493.54z M7450.71,11460.54c61-16,104-30,97-30c-15-1-215,48-221,55
		C7318.71,11493.54,7341.71,11488.54,7450.71,11460.54z M7592.71,11423.54c-3-3-12-4-19-1c-8,3-5,6,6,6
		C7590.71,11429.54,7596.71,11426.54,7592.71,11423.54z M7632.71,11413.54c-3-3-12-4-19-1c-8,3-5,6,6,6
		C7630.71,11419.54,7636.71,11416.54,7632.71,11413.54z M7682.71,11403.54c-3-3-12-4-19-1c-8,3-5,6,6,6
		C7680.71,11409.54,7686.71,11406.54,7682.71,11403.54z"/>
	<path d="M7607.71,12228.54c-15-6-22-17-22-34c0-26,203-702,224-745c20-42,48-37,91,17c22,26,116,125,210,218
		c233,231,312,348,255,375c-21,10-581,148-666,164C7659.71,12230.54,7620.71,12233.54,7607.71,12228.54z"/>
	<path d="M8204.71,11764.54c-290-294-349-371-321-415c10-16,6-18-40-16l-51,1l-65-115c-35-63-144-248-242-410
		c-194-323-276-473-340-623c-40-93-41-99-26-123c9-13,23-24,30-24c8,0,81,50,162,111c142,106,366,264,844,593
		c327,226,480,342,480,366c0,23-31,45-78,55c-18,4-31,9-29,12c3,3,31-1,62-7c51-10,59-10,76,6c12,11,19,27,16,39
		c-2,11-47,160-100,330c-53,171-103,335-112,366C8443.71,12006.54,8441.71,12005.54,8204.71,11764.54z M8157.71,11280.54
		c143-37,216-59,193-60c-5,0-98,22-205,49c-107,27-183,49-168,49C7992.71,11319.54,8073.71,11301.54,8157.71,11280.54z
		 M8512.71,11183.54c-3-3-12-4-19-1c-8,3-5,6,6,6C8510.71,11189.54,8516.71,11186.54,8512.71,11183.54z"/>
	<path d="M3160.71,10812.54c-674-53-1203-252-1687-634c-203-160-484-460-655-699c-507-708-686-1616-502-2540
		c122-608,419-1148,875-1590c505-488,1094-766,1814-857c190-23,590-23,760,0c520,73,1013,276,1583,653c202,134,258,182,288,247
		c41,91,27,112-110,172c-61,27-110,50-108,51c2,2,38-10,80-27c187-72,464-136,691-158c141-14,441-14,582,0c623,61,1177,322,1614,759
		c428,428,672,938,746,1560c19,164,19,507,0,671c-59,487-241,923-544,1299c-149,185-424,437-624,574l-57,39l-68-22
		c-84-27-178-82-280-163c-120-95-183-158-183-183c0-16,29-41,127-105c608-401,939-884,1008-1470c98-824-236-1572-895-2002
		c-687-450-1521-477-2189-72c-243,148-469,362-621,588c-342,510-449,1299-254,1886c67,203,204,453,331,605c74,89,78,99,51,128
		c-48,52-427,277-466,277c-41,0-255-327-386-591c-139-279-217-541-247-827c-16-152-6-571,16-712c76-487,241-870,536-1250
		c157-202,409-437,608-567c88-57,105-73,77-73c-7,0-78-39-156-86c-413-248-797-418-1071-474c-110-23-378-41-490-35
		c-208,13-252,17-344,31c-498,77-942,301-1319,664c-220,212-355,395-481,652c-113,231-187,477-227,758c-20,147-17,576,5,720
		c41,266,102,460,217,695c121,250,272,463,480,679c367,380,793,604,1310,687c180,29,566,37,752,15c469-54,874-223,1237-516
		c534-431,828-995,881-1695c28-370-64-833-276-1392c-54-145-59-175-26-188c313-122,402-151,516-165c66-8,84-7,102,5
		c26,17,127,219,202,405c86,214,152,452,189,690c15,94,18,174,18,440c-1,286-4,342-23,470c-107,690-383,1244-866,1738
		c-546,560-1209,864-2029,931C3556.71,10818.54,3259.71,10820.54,3160.71,10812.54z M5195.71,5723.54c0-2-9,0-20,6s-20,13-20,16
		c0,2,9,0,20-6S5195.71,5726.54,5195.71,5723.54z"/>
	<path d="M6215.71,10742.54c-324-41-702-153-970-288c-70-35-86-54-71-84c12-21,157-147,324-280c188-149,163-139,249-98
		c208,98,450,147,734,147c80,0,106,3,118,16c9,8,16,21,16,27c-1,40-258,564-280,570
		C6327.71,10754.54,6273.71,10749.54,6215.71,10742.54z"/>
</g>
</svg>
